<svg xmlns="http://www.w3.org/2000/svg" width="1000" height="350" viewBox="0 0 1000 350" fill="none"><g clip-path="url(#clip0_502_8)"><mask id="mask0_502_8" style="mask-type:luminance" maskUnits="userSpaceOnUse" x="0" y="0" width="1000" height="350"><path d="M1000 0H0V350H1000V0Z" fill="white"></path></mask><g mask="url(#mask0_502_8)"><path fill-rule="evenodd" clip-rule="evenodd" d="M466.255 57.9715H489.771V149.117H466.255V138.362C459.2 147.24 449.302 151.669 436.541 151.669C424.383 151.669 413.974 147.021 405.279 137.724C396.583 128.427 392.245 117.034 392.245 103.544C392.245 90.0548 396.583 78.6616 405.279 69.3647C413.974 60.0678 424.383 55.4194 436.541 55.4194C449.302 55.4194 459.2 59.8491 466.255 68.7267V57.9715ZM422.87 122.138C427.609 126.878 433.625 129.247 440.917 129.247C448.208 129.247 454.26 126.841 459.055 122.047C463.849 117.235 466.255 111.073 466.255 103.544C466.255 96.0157 463.849 89.836 459.055 85.0417C454.26 80.2475 448.208 77.8413 440.917 77.8413C433.625 77.8413 427.609 80.2475 422.87 85.0417C418.13 89.836 415.76 96.0157 415.76 103.544C415.76 111.073 418.13 117.271 422.87 122.138ZM575.813 57.9715H599.328V149.117H575.813V138.362C568.758 147.24 558.86 151.669 546.099 151.669C533.94 151.669 523.532 147.021 514.836 137.724C506.141 128.427 501.802 117.034 501.802 103.544C501.802 90.0548 506.141 78.6616 514.836 69.3647C523.532 60.0678 533.94 55.4194 546.099 55.4194C558.86 55.4194 568.758 59.8491 575.813 68.7267V57.9715ZM532.427 122.138C537.167 126.878 543.182 129.247 550.474 129.247C557.766 129.247 563.818 126.841 568.612 122.047C573.407 117.235 575.813 111.073 575.813 103.544C575.813 96.0157 573.407 89.836 568.612 85.0417C563.818 80.2475 557.766 77.8413 550.474 77.8413C543.182 77.8413 537.167 80.2475 532.427 85.0417C527.688 89.836 525.318 96.0157 525.318 103.544C525.318 111.073 527.688 117.271 532.427 122.138ZM616.099 149.117V16.0444H639.615V149.117H616.099ZM708.704 80.5757H688.104V118.492C688.104 121.646 688.888 123.961 690.474 125.419C692.06 126.878 694.357 127.698 697.402 127.88C700.446 128.063 704.201 128.026 708.704 127.789V149.117C692.534 150.94 681.141 149.427 674.524 144.56C667.907 139.693 664.589 130.997 664.589 118.492V80.5757H648.73V57.9715H664.589V39.5601L688.104 32.4507V57.9715H708.704V80.5757ZM795.657 137.815C786.305 147.057 774.876 151.669 761.386 151.669C747.897 151.669 736.503 147.021 727.206 137.724C717.91 128.427 713.261 117.034 713.261 103.544C713.261 90.0548 717.91 78.6616 727.206 69.3647C736.503 60.0678 747.897 55.4194 761.386 55.4194C774.876 55.4194 786.305 60.0678 795.657 69.3647C805.008 78.6616 809.694 90.0548 809.694 103.544C809.694 117.034 805.008 128.464 795.657 137.815ZM743.704 121.591C748.443 126.331 754.331 128.701 761.386 128.701C768.441 128.701 774.329 126.331 779.068 121.591C783.808 116.852 786.178 110.836 786.178 103.544C786.178 96.2527 783.808 90.237 779.068 85.4975C774.329 80.7579 768.441 78.3881 761.386 78.3881C754.331 78.3881 748.48 80.7579 743.795 85.4975C739.11 90.237 736.777 96.2527 736.777 103.544C736.777 110.836 739.092 116.852 743.704 121.591ZM416.854 259.039C420.008 270.451 428.575 276.174 442.557 276.174C451.544 276.174 458.362 273.13 462.974 267.06L481.932 277.997C472.945 290.995 459.693 297.503 442.193 297.503C427.117 297.503 415.031 292.945 405.917 283.831C396.802 274.716 392.245 263.232 392.245 249.378C392.245 235.651 396.747 224.185 405.734 215.016C414.721 205.846 426.279 201.253 440.37 201.253C453.732 201.253 464.76 205.865 473.456 215.107C482.151 224.331 486.49 235.76 486.49 249.378C486.49 252.422 486.18 255.63 485.578 259.039H416.854ZM416.489 240.81H462.974C461.643 234.612 458.873 230 454.68 226.956C450.487 223.911 445.711 222.398 440.37 222.398C434.044 222.398 428.831 224.003 424.692 227.229C420.554 230.456 417.82 234.977 416.489 240.81ZM549.016 201.253C558.987 201.253 567.208 204.589 573.716 211.279C580.224 217.951 583.469 227.193 583.469 238.987V294.951H559.954V241.904C559.954 235.815 558.313 231.167 555.031 227.958C551.75 224.732 547.375 223.128 541.906 223.128C535.836 223.128 530.969 225.005 527.323 228.779C523.677 232.534 521.854 238.203 521.854 245.732V294.951H498.339V203.805H521.854V214.013C527.56 205.5 536.62 201.253 549.016 201.253ZM618.833 259.039C621.987 270.451 630.555 276.174 644.537 276.174C653.524 276.174 660.341 273.13 664.953 267.06L683.912 277.997C674.925 290.995 661.672 297.503 644.172 297.503C629.097 297.503 617.011 292.945 607.896 283.831C598.781 274.716 594.224 263.232 594.224 249.378C594.224 235.651 598.727 224.185 607.714 215.016C616.701 205.846 628.258 201.253 642.349 201.253C655.711 201.253 666.74 205.865 675.435 215.107C684.131 224.331 688.469 235.76 688.469 249.378C688.469 252.422 688.159 255.63 687.558 259.039H618.833ZM618.469 240.81H664.953C663.623 234.612 660.852 230 656.659 226.956C652.466 223.911 647.691 222.398 642.349 222.398C636.024 222.398 630.81 224.003 626.672 227.229C622.534 230.456 619.8 234.977 618.469 240.81ZM723.834 219.482C726.021 213.648 729.631 209.274 734.68 206.357C739.73 203.44 745.344 201.982 751.542 201.982V228.232C744.378 227.375 737.961 228.833 732.31 232.607C726.659 236.38 723.834 242.633 723.834 251.383V294.951H700.318V203.805H723.834V219.482ZM827.011 203.805H849.98V290.575C849.98 304.667 845.332 315.422 836.035 322.841C826.738 330.26 815.527 333.961 802.402 333.961C792.558 333.961 783.899 332.083 776.425 328.31C768.951 324.537 763.209 319.013 759.198 311.721L779.25 300.237C783.862 308.732 791.829 312.997 803.131 312.997C810.55 312.997 816.384 311.047 820.631 307.164C824.878 303.263 827.011 297.74 827.011 290.575V280.732C820.084 289.956 810.368 294.586 797.845 294.586C784.957 294.586 774.183 290.047 765.488 281.005C756.792 271.945 752.454 260.917 752.454 247.919C752.454 235.031 756.829 224.039 765.579 214.924C774.329 205.81 785.084 201.253 797.845 201.253C810.368 201.253 820.084 205.865 827.011 215.107V203.805ZM783.079 265.966C787.946 270.578 794.071 272.893 801.49 272.893C808.91 272.893 815.016 270.56 819.81 265.875C824.605 261.19 827.011 255.211 827.011 247.919C827.011 240.737 824.605 234.812 819.81 230.146C815.016 225.461 808.91 223.128 801.49 223.128C794.071 223.128 787.964 225.461 783.17 230.146C778.376 234.812 775.97 240.737 775.97 247.919C775.97 255.211 778.339 261.227 783.079 265.966ZM878.418 192.867C874.535 192.867 871.162 191.445 868.3 188.583C865.438 185.721 864.016 182.349 864.016 178.466C864.016 174.583 865.438 171.175 868.3 168.258C871.162 165.341 874.535 163.883 878.418 163.883C882.428 163.883 885.855 165.341 888.717 168.258C891.579 171.175 893.001 174.583 893.001 178.466C893.001 182.349 891.579 185.721 888.717 188.583C885.855 191.445 882.428 192.867 878.418 192.867ZM866.751 294.951V203.805H890.267V294.951H866.751ZM976.491 203.805H1000.01V294.951H976.491V284.195C969.436 293.073 959.538 297.503 946.777 297.503C934.618 297.503 924.209 292.854 915.514 283.557C906.818 274.26 902.48 262.867 902.48 249.378C902.48 235.888 906.818 224.495 915.514 215.198C924.209 205.901 934.618 201.253 946.777 201.253C959.538 201.253 969.436 205.682 976.491 214.56V203.805ZM933.105 267.971C937.845 272.711 943.86 275.081 951.152 275.081C958.444 275.081 964.496 272.675 969.29 267.88C974.084 263.068 976.491 256.906 976.491 249.378C976.491 241.849 974.084 235.669 969.29 230.875C964.496 226.081 958.444 223.675 951.152 223.675C943.86 223.675 937.845 226.081 933.105 230.875C928.366 235.669 925.996 241.849 925.996 249.378C925.996 256.906 928.366 263.104 933.105 267.971ZM350.008 52.3022L339.69 62.62C339.69 62.62 286.989 112.623 181.533 59.8856C83.2051 10.7216 22.7754 38.6668 0.00708008 54.3074V0.00268555H350.008V52.3022ZM350.008 154.386L339.69 164.703C339.69 164.703 286.989 214.706 181.533 161.969C83.2051 112.805 22.7754 140.75 0.00708008 156.391V93.5183L0.0433516 93.5548L10.3429 83.2188C10.3429 83.2188 62.9159 33.198 168.481 85.9714C266.737 135.099 327.239 107.136 350.008 91.5314V154.386ZM350.008 256.469L339.69 266.787C339.69 266.787 286.989 316.789 181.533 264.052C83.2051 214.888 22.7754 242.833 0.00708008 258.474V195.602L0.0433516 195.638L10.3429 185.302C10.3429 185.302 62.9159 135.281 168.481 188.055C266.737 237.182 327.239 209.219 350.008 193.615V256.469ZM0.00708008 297.685L0.0433516 297.721L10.3429 287.385C10.3429 287.385 62.9159 237.365 168.481 290.138C266.737 339.266 327.239 311.302 350.008 295.698V350.002H0.00708008V297.685Z" fill="#013742"></path></g></g><defs><clipPath id="clip0_502_8"><rect width="1000" height="350" fill="white"></rect></clipPath></defs></svg>